<svg width="15" height="15" viewBox="0 0 15 15" fill="none" xmlns="http://www.w3.org/2000/svg">
<g clip-path="url(#clip0_22_77)">
<path d="M7.4953 0C7.92971 0.00832373 8.34427 0.124216 8.71177 0.384172C8.94642 0.549686 9.18619 0.711038 9.40324 0.896402C9.79058 1.23063 10.2384 1.38174 10.7401 1.43264C11.1146 1.47042 11.4956 1.50019 11.8547 1.62217C12.7155 1.9151 13.2348 2.50864 13.3801 3.41497C13.4477 3.835 13.5082 4.25599 13.569 4.67697C13.5989 4.87785 13.6815 5.0672 13.8084 5.2257C14.0377 5.51938 14.2663 5.81348 14.4945 6.10802C15.1558 6.95608 15.1696 7.96485 14.5303 8.83468C14.3757 9.04469 14.2297 9.26239 14.0585 9.458C13.7281 9.83545 13.5869 10.2779 13.536 10.7671C13.4992 11.1192 13.4618 11.4771 13.3676 11.8216C13.1221 12.718 12.4053 13.3202 11.4584 13.4419C11.0682 13.4918 10.6789 13.5494 10.29 13.609C10.0897 13.6423 9.90116 13.7262 9.74225 13.8526C9.42468 14.0943 9.10648 14.3351 8.78412 14.5704C8.0123 15.1345 7.03561 15.1441 6.25162 14.5944C6.00898 14.4307 5.77488 14.2547 5.55024 14.0671C5.16609 13.7348 4.72496 13.5814 4.22813 13.536C3.91601 13.5084 3.60594 13.4611 3.29977 13.3945C2.33204 13.1816 1.68059 12.4437 1.55862 11.4538C1.5106 11.0632 1.45202 10.6739 1.39216 10.2852C1.3602 10.09 1.27949 9.90602 1.15751 9.75029C0.918697 9.43623 0.681806 9.12185 0.448437 8.80394C-0.139949 8.00519 -0.149873 7.02907 0.424107 6.21911C0.590251 5.98444 0.754154 5.74657 0.942386 5.53048C1.27115 5.15431 1.41265 4.71123 1.46515 4.22205C1.50484 3.85325 1.53493 3.47868 1.64922 3.12268C1.93733 2.2282 2.55004 1.7054 3.47936 1.55846C3.88869 1.49443 4.29855 1.43221 4.70895 1.37181C4.89344 1.34254 5.06754 1.2671 5.21507 1.15252L6.16039 0.444359C6.55222 0.149187 6.99431 0.00544244 7.4953 0ZM7.48538 1.36605C7.29757 1.36301 7.11444 1.42474 6.96678 1.54085C6.67035 1.76495 6.37071 1.98905 6.0746 2.21315C5.70214 2.49993 5.26029 2.68276 4.79411 2.74299C4.39907 2.79613 4.00436 2.85376 3.61125 2.92099C3.24343 2.98502 2.99149 3.24337 2.93099 3.60898C2.88361 3.89711 2.83495 4.18524 2.80518 4.47721C2.73507 5.14374 2.51995 5.74817 2.09035 6.27225C1.89475 6.51076 1.71484 6.76239 1.53397 7.01242C1.30509 7.3284 1.30989 7.67544 1.54166 7.9879C1.78239 8.31252 2.02632 8.63523 2.2677 8.95985C2.49178 9.26303 2.65184 9.59822 2.71587 9.97151C2.79334 10.4328 2.85672 10.8964 2.92843 11.3587C2.98893 11.7483 3.24855 12.0099 3.63846 12.072C3.92177 12.1171 4.2054 12.168 4.49063 12.1955C5.16289 12.2644 5.77112 12.4882 6.29708 12.9229C6.52117 13.1089 6.76222 13.2779 6.99847 13.4508C7.33908 13.6999 7.67521 13.6986 8.01198 13.4483C8.32794 13.2136 8.64166 12.9757 8.95698 12.7401C9.28478 12.4914 9.66905 12.3278 10.0755 12.2637C10.5064 12.1965 10.9382 12.1357 11.3694 12.0716C11.5445 12.0489 11.7073 11.9699 11.8335 11.8465C11.9597 11.7231 12.0423 11.562 12.0689 11.3875C12.1182 11.0994 12.1649 10.8112 12.1969 10.5196C12.2651 9.84025 12.4892 9.22877 12.9284 8.6983C13.1147 8.4742 13.2831 8.23249 13.4554 7.9959C13.7054 7.65239 13.6986 7.30663 13.4381 6.9692C13.2033 6.66613 12.9685 6.3636 12.7338 6.06159C12.4985 5.75906 12.3231 5.42483 12.2562 5.04674C12.1733 4.57581 12.107 4.10168 12.0398 3.62819C11.9853 3.24401 11.7244 2.96165 11.3432 2.89826C11.0602 2.85088 10.7766 2.80222 10.4913 2.77276C9.81331 2.70297 9.19868 2.48463 8.66663 2.04668C8.44575 1.86387 8.20662 1.70252 7.97677 1.53029C7.83553 1.42291 7.66279 1.36518 7.48538 1.36605Z" fill="#E15E2B"/>
<path d="M6.67104 9.54506C6.47897 9.54186 6.25488 9.45286 6.07401 9.2723C5.70459 8.90446 5.33613 8.53597 4.97311 8.16108C4.90973 8.0982 4.85943 8.02339 4.8251 7.94097C4.79078 7.85855 4.7731 7.77015 4.7731 7.68087C4.7731 7.59159 4.79078 7.50319 4.8251 7.42077C4.85943 7.33835 4.90973 7.26354 4.97311 7.20065C5.24137 6.93397 5.65465 6.93045 5.93348 7.20065C6.15565 7.41483 6.36949 7.63733 6.58685 7.85631C6.73187 8.00229 6.73187 8.00229 6.87144 7.86175C7.59534 7.13353 8.31925 6.4052 9.04315 5.67677C9.32486 5.39473 9.72822 5.3816 10.0035 5.63643C10.2971 5.90856 10.299 6.34235 10.0016 6.6436C9.45995 7.19254 8.9167 7.7402 8.37186 8.28658C8.05173 8.60672 7.73641 8.93007 7.41661 9.24989C7.21653 9.44966 6.99117 9.54474 6.67104 9.54506Z" fill="#E15E2B"/>
</g>
<defs>
<clipPath id="clip0_22_77">
<rect width="15" height="15" fill="white"/>
</clipPath>
</defs>
</svg>
