<svg width="15" height="15" viewBox="0 0 15 15" fill="none" xmlns="http://www.w3.org/2000/svg">
<g clip-path="url(#clip0_22_101)">
<path d="M7.49529 0C7.92969 0.00832373 8.34425 0.124216 8.71175 0.384172C8.9464 0.549686 9.18618 0.711038 9.40322 0.896402C9.79057 1.23063 10.2384 1.38174 10.7401 1.43264C11.1146 1.47042 11.4955 1.50019 11.8547 1.62217C12.7155 1.9151 13.2348 2.50864 13.3801 3.41497C13.4477 3.835 13.5082 4.25599 13.569 4.67697C13.5988 4.87785 13.6815 5.0672 13.8084 5.2257C14.0376 5.51938 14.2663 5.81348 14.4945 6.10802C15.1558 6.95608 15.1696 7.96485 14.5303 8.83468C14.3757 9.04469 14.2297 9.26239 14.0584 9.458C13.7281 9.83545 13.5869 10.2779 13.536 10.7671C13.4992 11.1192 13.4617 11.4771 13.3676 11.8216C13.1221 12.718 12.4053 13.3202 11.4584 13.4419C11.0682 13.4918 10.6789 13.5494 10.29 13.609C10.0897 13.6423 9.90114 13.7262 9.74223 13.8526C9.42467 14.0943 9.10647 14.3351 8.7841 14.5704C8.01229 15.1345 7.03559 15.1441 6.25161 14.5944C6.00896 14.4307 5.77486 14.2547 5.55022 14.0671C5.16607 13.7348 4.72494 13.5814 4.22811 13.536C3.91599 13.5084 3.60593 13.4611 3.29976 13.3945C2.33202 13.1816 1.68057 12.4437 1.55861 11.4538C1.51059 11.0632 1.45201 10.6739 1.39214 10.2852C1.36018 10.09 1.27947 9.90602 1.15749 9.75029C0.918682 9.43623 0.681791 9.12185 0.448421 8.80394C-0.139965 8.00519 -0.149888 7.02907 0.424092 6.21911C0.590236 5.98444 0.754139 5.74657 0.942371 5.53048C1.27114 5.15431 1.41263 4.71123 1.46513 4.22205C1.50483 3.85325 1.53492 3.47868 1.6492 3.12268C1.93731 2.2282 2.55003 1.7054 3.47935 1.55846C3.88868 1.49443 4.29854 1.43221 4.70894 1.37181C4.89343 1.34254 5.06752 1.2671 5.21505 1.15252L6.16037 0.444359C6.5522 0.149187 6.99429 0.00544244 7.49529 0ZM7.48536 1.36605C7.29755 1.36301 7.11442 1.42474 6.96676 1.54085C6.67033 1.76495 6.3707 1.98905 6.07458 2.21315C5.70213 2.49993 5.26027 2.68276 4.79409 2.74299C4.39906 2.79613 4.00435 2.85376 3.61124 2.92099C3.24341 2.98502 2.99148 3.24337 2.93097 3.60898C2.8836 3.89711 2.83494 4.18524 2.80517 4.47721C2.73506 5.14374 2.51994 5.74817 2.09033 6.27225C1.89474 6.51076 1.71483 6.76239 1.53396 7.01242C1.30507 7.3284 1.30987 7.67544 1.54164 7.9879C1.78237 8.31252 2.02631 8.63523 2.26768 8.95985C2.49177 9.26303 2.65183 9.59822 2.71585 9.97151C2.79332 10.4328 2.85671 10.8964 2.92841 11.3587C2.98892 11.7483 3.24854 12.0099 3.63845 12.072C3.92176 12.1171 4.20538 12.168 4.49061 12.1955C5.16287 12.2644 5.7711 12.4882 6.29707 12.9229C6.52115 13.1089 6.76221 13.2779 6.99846 13.4508C7.33907 13.6999 7.6752 13.6986 8.01197 13.4483C8.32793 13.2136 8.64165 12.9757 8.95697 12.7401C9.28477 12.4914 9.66904 12.3278 10.0755 12.2637C10.5064 12.1965 10.9382 12.1357 11.3694 12.0716C11.5444 12.0489 11.7073 11.9699 11.8335 11.8465C11.9597 11.7231 12.0423 11.562 12.0689 11.3875C12.1182 11.0994 12.1649 10.8112 12.1969 10.5196C12.2651 9.84025 12.4892 9.22877 12.9284 8.6983C13.1147 8.4742 13.2831 8.23249 13.4553 7.9959C13.7054 7.65239 13.6986 7.30663 13.438 6.9692C13.2033 6.66613 12.9685 6.3636 12.7338 6.06159C12.4985 5.75906 12.3231 5.42483 12.2562 5.04674C12.1732 4.57581 12.107 4.10168 12.0398 3.62819C11.9853 3.24401 11.7244 2.96165 11.3432 2.89826C11.0602 2.85088 10.7765 2.80222 10.4913 2.77276C9.8133 2.70297 9.19866 2.48463 8.66662 2.04668C8.44573 1.86387 8.2066 1.70252 7.97675 1.53029C7.83551 1.42291 7.66278 1.36518 7.48536 1.36605Z" fill="#E15E2B"/>
</g>
<defs>
<clipPath id="clip0_22_101">
<rect width="15" height="15" fill="white"/>
</clipPath>
</defs>
</svg>
