<svg width="26" height="26" viewBox="0 0 26 26" fill="none" xmlns="http://www.w3.org/2000/svg">
<path d="M19.445 10.514H6.41679V14.9335H19.445V10.514Z" fill="white"/>
<path d="M8.43191 22.3921C7.87142 21.9829 7.37233 21.4957 6.94979 20.9452C6.88437 20.8629 6.85271 20.7194 6.69304 20.7785C6.68048 20.6165 6.62961 20.4597 6.54461 20.3212C5.79335 18.9911 5.31783 17.5933 5.39661 16.0303C5.45148 14.933 5.40646 13.83 5.40717 12.7298C5.40717 12.5772 5.41842 12.4245 5.33682 12.2867C5.34456 10.998 5.34808 9.70929 5.36074 8.4178C5.3727 7.26206 5.90168 6.42498 6.96175 5.96142C7.64548 5.66106 8.34891 5.69482 9.04249 5.98885C9.99791 6.40167 10.9783 6.75408 11.9779 7.044C12.822 7.28387 13.6401 7.20438 14.4617 6.94693C15.3438 6.66977 16.2006 6.32861 17.0574 5.98534C18.8356 5.27276 20.6491 6.48477 20.6709 8.40092C20.6857 9.57283 20.6744 10.7447 20.6751 11.9181C20.6751 12.0686 20.6561 12.2234 20.7609 12.3535C20.628 12.4463 20.6744 12.587 20.673 12.7094C20.673 13.3306 20.6814 13.9524 20.673 14.5735C20.6484 15.8735 20.7736 17.1804 20.3347 18.455C20.0491 19.2844 19.7304 20.0828 19.1972 20.7848C18.7386 21.4439 18.1561 21.9806 17.5259 22.4695C17.3711 22.5722 17.2156 22.6735 17.063 22.779C16.5826 23.1117 16.0114 23.2658 15.5197 23.5753C15.398 23.5233 15.2882 23.5901 15.1799 23.621C13.6619 24.0494 12.1552 24.0121 10.647 23.5591C10.4965 23.4993 10.3488 23.4325 10.1954 23.3812C9.71919 23.2215 9.32386 22.8979 8.8589 22.7192C8.84564 22.7038 8.82753 22.6934 8.80755 22.6897L8.43191 22.3921ZM11.9554 14.8879C12.6307 15.9396 13.8462 15.5857 14.1867 14.8176C14.3857 14.8359 14.4723 15.0096 14.601 15.1222C15.0231 15.4915 15.4662 15.8137 16.0472 15.9023C16.4857 15.9616 16.9303 15.9576 17.3676 15.8903C18.4853 15.7419 19.6692 14.5158 19.6221 13.3186C19.5946 12.6398 19.6003 11.9582 19.6221 11.2786C19.6474 10.4528 19.3688 9.76487 18.7555 9.22041C18.358 8.8687 17.9015 8.57818 17.7488 8.01192C17.6876 7.78682 17.5132 7.83887 17.3634 7.96831C17.2339 8.08085 17.146 8.24264 16.9659 8.31088C16.8843 8.03372 16.8252 7.75868 16.7218 7.50052C16.7052 7.44715 16.6745 7.39925 16.6329 7.3619C16.5914 7.32454 16.5405 7.29911 16.4856 7.2883C16.4308 7.27749 16.374 7.2817 16.3214 7.30049C16.2687 7.31927 16.2221 7.35193 16.1865 7.39501C15.6526 7.9669 15.0737 8.50784 14.6137 9.13459C14.1213 9.81059 13.5058 10.0568 12.7144 9.97027C12.369 9.93228 12.0349 9.81551 11.8042 9.56228C11.1415 8.83634 10.481 8.1104 9.78391 7.41893C9.53911 7.17624 9.46666 7.19946 9.28447 7.48364C9.10861 7.75728 9.16489 8.0907 9.02139 8.3981C8.93979 8.32354 8.87156 8.26304 8.80614 8.20044C8.74072 8.13783 8.6753 8.06608 8.60637 8.00277C8.38127 7.79596 8.23425 7.81707 8.0802 8.08578C8.01836 8.1849 7.97321 8.2935 7.94655 8.40725C7.89731 8.67455 7.76506 8.85674 7.54348 9.02837C7.0961 9.37376 6.69233 9.78738 6.54602 10.3529C6.26465 11.4454 6.42995 12.5652 6.40041 13.6724C6.4023 13.6967 6.40825 13.7205 6.41799 13.7428C6.76971 14.9562 7.53504 15.7511 8.78996 15.9832C9.65729 16.1429 10.4712 15.9733 11.2013 15.4204C11.4426 15.234 11.5959 14.9098 11.9554 14.8879ZM14.665 18.5535C14.3731 18.5535 14.0812 18.5535 13.7892 18.5535C13.5979 18.5535 13.5079 18.6429 13.6021 18.8103C13.8047 19.162 14.0769 19.4377 14.5229 19.4708C15.0329 19.5081 15.4374 19.3301 15.7026 18.8919C15.8095 18.716 15.7842 18.5472 15.5063 18.5535C15.2285 18.5599 14.9457 18.5528 14.665 18.5535ZM11.3533 18.5535C11.0613 18.5535 10.7701 18.5535 10.4782 18.5535C10.2833 18.5535 10.2257 18.6372 10.2932 18.8166C10.4599 19.2633 10.7631 19.4609 11.2935 19.4687C11.8239 19.4764 12.1889 19.2527 12.3704 18.8454C12.4612 18.6414 12.3979 18.5584 12.1925 18.5556C11.9132 18.5507 11.6332 18.5535 11.3533 18.5535ZM13.0366 20.1714C12.7552 20.1714 12.4738 20.177 12.1925 20.1714C11.9111 20.1658 11.9111 20.3156 11.987 20.5119C12.0799 20.7489 12.3001 20.8495 12.5013 20.9628C13.045 21.2702 13.7977 21.0219 14.0551 20.4704C14.1501 20.265 14.1332 20.1644 13.8786 20.1728C13.5993 20.1777 13.3179 20.1707 13.0366 20.1707V20.1714Z" fill="#FF4E00"/>
<path d="M18.6225 24.3822C18.6647 24.5932 18.8335 24.5292 18.9616 24.5299C19.6418 24.5348 20.3213 24.5299 21.0015 24.5299C21.4271 24.5299 21.7373 24.8113 21.7232 25.1736C21.7113 25.4634 21.387 25.7243 21.0198 25.7243C15.723 25.7243 10.4259 25.7243 5.1286 25.7243C4.66012 25.7243 4.42517 25.5175 4.42517 25.1292C4.42517 24.741 4.66223 24.5313 5.11875 24.5306C5.82218 24.5306 6.52561 24.5306 7.22904 24.5306C7.35355 24.5306 7.48931 24.57 7.59694 24.4645C8.35453 24.6446 9.11846 24.5714 9.88238 24.5278L16.2393 24.5327H16.2442C16.897 24.6481 17.5512 24.6164 18.2054 24.5503L18.6225 24.3822Z" fill="#E9E8E7"/>
<path d="M5.3333 12.2846C5.41842 12.4253 5.40364 12.5751 5.40364 12.7278C5.40364 13.8279 5.44796 14.9309 5.39309 16.0283C5.31431 17.5934 5.78983 18.9911 6.54109 20.3192C6.62609 20.4577 6.67696 20.6144 6.68951 20.7764C6.47848 21.1035 6.16616 21.2484 5.83977 21.1696C5.67402 21.1296 5.52485 21.039 5.41303 20.9102C5.3012 20.7815 5.23227 20.6211 5.21583 20.4514C5.21189 20.4281 5.21189 20.4044 5.21583 20.3811C5.36355 19.7445 4.99214 19.371 4.55249 19.008C3.98553 18.5388 3.44529 18.038 2.8924 17.5519C1.81615 16.6079 1.80419 15.36 2.87481 14.4174C3.68868 13.6999 4.5131 12.9951 5.3333 12.2846Z" fill="#D24000"/>
<path d="M19.1937 20.7834C19.7269 20.08 20.0455 19.283 20.3311 18.4537C20.7701 17.179 20.6449 15.8721 20.6695 14.5721C20.6814 13.951 20.6695 13.3292 20.6695 12.708C20.6695 12.5857 20.6245 12.445 20.7574 12.3521C21.6283 13.1111 22.5265 13.8413 23.3601 14.6369C24.1662 15.4043 24.086 16.6719 23.2363 17.4449C22.501 18.1123 21.757 18.7688 21.0043 19.4145C20.8306 19.5644 20.7229 19.7149 20.7504 19.9506C20.7637 20.0659 20.7454 20.1848 20.7504 20.3023C20.7708 20.6807 20.6266 20.9642 20.2727 21.1183C19.9393 21.2632 19.6242 21.1752 19.3287 20.8742C19.2871 20.8391 19.2418 20.8087 19.1937 20.7834Z" fill="#D24000"/>
<path d="M11.8112 3.79559C11.8599 3.37149 12.0285 2.97007 12.2973 2.63845C12.758 2.0757 12.9515 1.44261 13.0007 0.743405C13.0141 0.554886 12.9775 0.333306 13.2117 0.282659C13.4284 0.236936 13.5339 0.423345 13.6387 0.583727C13.8715 0.939662 13.9946 1.34343 14.1093 1.74368C14.2352 2.18403 13.9939 2.57795 13.7463 2.87691C13.1836 3.55783 13.2385 4.29362 13.3946 5.06528C13.4305 5.18936 13.4305 5.32106 13.3946 5.44513C13.3404 5.59355 13.2286 5.65616 13.0914 5.57175C12.5498 5.23059 12.0658 4.83315 11.8435 4.20006C11.8269 4.15652 11.8153 4.1112 11.8091 4.065C11.8063 4.01013 11.8112 3.95105 11.8112 3.79559Z" fill="#E9E9E9"/>
<path d="M18.6225 24.3822L18.2004 24.5517L16.2393 24.5341H16.235C15.8299 24.3379 15.5014 24.0853 15.5147 23.5753C16.0071 23.2658 16.5776 23.1118 17.0581 22.7791C17.2107 22.6735 17.3662 22.5722 17.5209 22.4695C17.7408 22.4761 17.9602 22.4951 18.1779 22.5265C18.5803 22.6067 18.8814 22.8283 19.0073 23.2356C19.1536 23.7027 18.9517 24.067 18.6225 24.3822Z" fill="#FFB800"/>
<path d="M9.87886 24.5278C9.11493 24.5714 8.35101 24.6445 7.59342 24.4644L7.44499 24.3238L7.46187 24.3069C7.56246 24.335 7.66306 24.3892 7.76294 24.3885C8.58033 24.3807 9.40404 24.4877 10.2123 24.2816C10.1771 24.4659 9.97382 24.4236 9.87886 24.5278Z" fill="#FFB800"/>
<path d="M8.43191 22.3922L8.80262 22.6883C8.34328 22.5891 7.89871 22.6967 7.45204 22.7804L7.42671 22.7516C7.60187 22.5511 7.83892 22.5124 8.08583 22.4998C8.21033 22.4934 8.3461 22.523 8.43191 22.3922Z" fill="#FFB800"/>
<path d="M7.445 24.3231C6.92236 23.9622 6.87734 23.2778 7.34652 22.8135L7.38029 22.8466C7.32894 23.0576 7.15449 23.1983 7.14886 23.4473C7.13972 23.7948 7.33597 24.0291 7.46189 24.3062L7.445 24.3231Z" fill="#FFB800"/>
<path d="M7.34651 22.8135L7.4267 22.7516L7.45203 22.7805L7.38168 22.8466L7.34651 22.8135Z" fill="#E19F2D"/>
<path d="M11.9554 14.888C11.5959 14.907 11.4426 15.2341 11.1999 15.417C10.4697 15.9677 9.65588 16.1373 8.78855 15.9797C7.53363 15.7476 6.76689 14.9527 6.41658 13.7393C6.40683 13.717 6.40089 13.6932 6.399 13.6689C6.42854 12.5617 6.25831 11.4419 6.54461 10.3494C6.69092 9.78671 7.09469 9.37027 7.54207 9.02489C7.76365 8.85325 7.89378 8.67318 7.94513 8.40376C7.97223 8.29148 8.01737 8.18434 8.07879 8.08652C8.23284 7.8178 8.37985 7.7967 8.60495 8.00351C8.67529 8.06682 8.73649 8.13646 8.80473 8.20117C8.87296 8.26589 8.93838 8.32427 9.01998 8.39884C9.16066 8.09355 9.1072 7.76012 9.28306 7.48438C9.46525 7.20301 9.5377 7.17698 9.78249 7.41966C10.4796 8.11113 11.1401 8.83708 11.8027 9.56301C12.0335 9.81625 12.3655 9.93302 12.713 9.971C13.505 10.0575 14.1198 9.81133 14.6122 9.13533C15.0723 8.50857 15.6512 7.96764 16.1851 7.39575C16.2207 7.35266 16.2673 7.32 16.32 7.30122C16.3726 7.28244 16.4294 7.27823 16.4842 7.28904C16.539 7.29985 16.5899 7.32528 16.6315 7.36263C16.6731 7.39999 16.7038 7.44789 16.7204 7.50126C16.8224 7.75942 16.8829 8.03446 16.9645 8.31161C17.1446 8.24127 17.2325 8.08159 17.362 7.96904C17.5118 7.83961 17.6862 7.78756 17.7474 8.01265C17.9001 8.5754 18.3566 8.86803 18.754 9.22115C19.3674 9.7656 19.646 10.4536 19.6207 11.2794C19.5996 11.9582 19.5939 12.6398 19.6207 13.3193C19.6678 14.5152 18.4839 15.7426 17.3662 15.8911C16.9289 15.9583 16.4842 15.9624 16.0458 15.903C15.4662 15.8123 15.0216 15.4901 14.5996 15.1208C14.4709 15.0083 14.3843 14.8345 14.1853 14.8162C14.2406 14.7073 14.2686 14.5866 14.2669 14.4645C14.5306 14.473 14.5102 14.3112 14.4533 14.1409C14.3881 13.9246 14.2718 13.7272 14.1143 13.5653C13.9567 13.4035 13.7624 13.2819 13.548 13.211C13.2258 13.0534 12.9029 12.9662 12.5793 13.211C12.3247 13.2398 12.1235 13.3876 11.9462 13.5508C11.4595 14.0073 11.4595 14.4898 11.9244 14.7522L11.9554 14.888ZM15.3931 12.4583C15.1785 12.4583 14.9928 12.5737 14.7895 12.6173C14.6446 12.6483 14.6108 12.7334 14.6108 12.8677C14.6108 13.6415 14.9379 14.2359 15.5781 14.665C15.723 14.7628 15.8432 14.7522 15.9931 14.6558C16.7289 14.1799 17.5327 13.8185 18.377 13.5838C18.6731 13.5015 18.7751 13.3454 18.7737 13.0675C18.7702 12.5301 18.7737 11.992 18.7667 11.4545C18.7578 11.3268 18.7342 11.2005 18.6964 11.0782C18.6668 10.9664 18.5894 10.9277 18.4853 10.9868C18.1097 11.1978 17.7348 11.4046 17.3598 11.6142L15.3931 12.4583ZM8.64012 11.7493L7.21357 11.0803C7.15378 11.8724 7.1172 12.6124 7.22623 13.3552C7.24804 13.505 7.35144 13.5662 7.48509 13.6063C8.33986 13.8536 9.15389 14.2245 9.90137 14.7072C10.021 14.7846 10.1335 14.812 10.2601 14.736C10.8461 14.3843 11.214 13.8764 11.3153 13.2005C11.3948 12.6581 11.1612 12.4555 10.5795 12.5097C10.5387 12.4696 10.5049 12.4112 10.4557 12.3936C9.84932 12.1748 9.24296 11.9631 8.63731 11.7493H8.64012Z" fill="#FE7F47"/>
<path d="M7.38027 22.8466L7.45062 22.7805C7.89729 22.6968 8.34186 22.5891 8.8012 22.6883C8.82118 22.692 8.83929 22.7025 8.85255 22.7179C9.19161 23.1659 9.73395 23.2883 10.2003 23.5169C10.4114 23.6218 10.4817 23.7132 10.4761 23.9158C10.4785 23.9246 10.4783 23.934 10.4755 23.9427C10.4728 23.9514 10.4676 23.9592 10.4606 23.965L10.4022 24.0438C10.296 24.0473 10.251 24.0973 10.2791 24.2042V24.2C10.2693 24.199 10.2593 24.2003 10.25 24.2038C10.2408 24.2072 10.2324 24.2128 10.2256 24.22C10.2188 24.2272 10.2138 24.2358 10.2108 24.2453C10.2079 24.2548 10.2072 24.2648 10.2088 24.2745V24.2823C9.40052 24.4884 8.57681 24.3815 7.75942 24.3892C7.65954 24.3892 7.55895 24.3357 7.45835 24.3076C7.33244 24.0305 7.13618 23.7962 7.14533 23.4487C7.15447 23.1955 7.32892 23.0548 7.38027 22.8466Z" fill="#FFB800"/>
<path d="M14.2683 14.4673C14.27 14.5895 14.242 14.7102 14.1867 14.8191C13.8462 15.5886 12.6307 15.9445 11.9554 14.8894C11.9463 14.8437 11.9378 14.7987 11.9294 14.7529C11.9999 14.7485 12.0708 14.7525 12.1404 14.7649C12.6377 14.9147 13.0731 14.9436 13.4431 14.4455C13.6542 14.1571 14.0734 14.2148 14.2683 14.4673Z" fill="#EC9509"/>
<path d="M14.665 18.5535C14.9464 18.5535 15.2278 18.5578 15.5091 18.5535C15.7905 18.5493 15.8123 18.716 15.7054 18.8919C15.4409 19.328 15.0357 19.5081 14.5257 19.4708C14.0798 19.4378 13.8075 19.1648 13.6049 18.8103C13.5093 18.6429 13.6007 18.5507 13.7921 18.5535C14.0812 18.5564 14.3731 18.5535 14.665 18.5535Z" fill="#FE7F47"/>
<path d="M11.3533 18.5535C11.6346 18.5535 11.916 18.5535 12.1924 18.5535C12.3979 18.5535 12.4612 18.6394 12.3704 18.8434C12.1889 19.2506 11.8161 19.4764 11.2935 19.4666C10.7708 19.4567 10.4599 19.2612 10.2932 18.8145C10.2228 18.6351 10.2833 18.5493 10.4782 18.5514C10.7701 18.5557 11.0613 18.5535 11.3533 18.5535Z" fill="#FE7F47"/>
<path d="M13.0366 20.1707C13.3179 20.1707 13.5993 20.1777 13.8807 20.1707C14.1353 20.1623 14.1522 20.2629 14.0572 20.4683C13.7998 21.0219 13.0471 21.2702 12.5034 20.9607C12.3022 20.8474 12.0813 20.7496 11.9892 20.5098C11.9125 20.3135 11.9188 20.1623 12.1946 20.1693C12.4703 20.1763 12.7559 20.1707 13.0366 20.1707Z" fill="#FE7F47"/>
<path d="M10.6435 23.5577C10.5732 23.6717 10.59 23.8229 10.4775 23.9158C10.4838 23.7132 10.4156 23.6217 10.2017 23.5169C9.73537 23.2883 9.19303 23.1652 8.85397 22.7178C9.32035 22.8965 9.71568 23.2201 10.1905 23.3798C10.3452 23.4311 10.493 23.4979 10.6435 23.5577Z" fill="#FFB800"/>
<path d="M17.3584 11.6142C17.3584 12.0004 17.3648 12.388 17.3584 12.7735C17.35 13.3657 16.9364 13.7913 16.38 13.7899C15.8236 13.7885 15.4156 13.3678 15.3987 12.7742C15.3987 12.6693 15.3945 12.5631 15.3923 12.4583L17.3584 11.6142Z" fill="#182A32"/>
<path d="M10.5767 12.5097C10.5795 12.6611 10.5746 12.8125 10.5619 12.9634C10.5298 13.2022 10.4081 13.4199 10.2214 13.5723C10.0347 13.7248 9.79713 13.8005 9.55669 13.7843C9.31607 13.7782 9.08698 13.6799 8.91678 13.5097C8.74658 13.3395 8.64829 13.1105 8.64223 12.8698C8.63098 12.4963 8.64223 12.1228 8.63801 11.7493C9.24366 11.9638 9.85002 12.1755 10.4536 12.3943C10.5021 12.4112 10.5359 12.4696 10.5767 12.5097Z" fill="#182A32"/>
<path d="M14.2683 14.4673C14.0734 14.2148 13.6542 14.1571 13.441 14.4441C13.071 14.9421 12.6356 14.9133 12.1383 14.7634C12.0687 14.7511 11.9978 14.7471 11.9273 14.7515C11.4623 14.4891 11.4623 14.0065 11.9491 13.55C12.1228 13.3868 12.324 13.2391 12.5821 13.2103C12.5763 13.2782 12.5626 13.3452 12.5413 13.41C12.395 13.7322 12.4112 13.7618 12.7524 13.7688C12.9145 13.7798 13.0773 13.7782 13.2392 13.7639C13.4537 13.7322 13.6943 13.6935 13.4657 13.3791C13.3995 13.2891 13.4488 13.2286 13.5536 13.2138C13.7681 13.2847 13.9623 13.4063 14.1199 13.5681C14.2775 13.73 14.3937 13.9274 14.4589 14.1437C14.5117 14.3139 14.5292 14.4757 14.2683 14.4673Z" fill="#FAC10C"/>
<path d="M13.5494 13.2138C13.4445 13.2286 13.3953 13.2891 13.4614 13.3791C13.69 13.6907 13.4495 13.7308 13.2349 13.7639C13.073 13.7782 12.9103 13.7799 12.7482 13.7688C12.4098 13.7639 12.3964 13.7323 12.5371 13.4101C12.5584 13.3453 12.5721 13.2782 12.5779 13.2103C12.9043 12.969 13.2272 13.0563 13.5494 13.2138Z" fill="#F9D609"/>
<path d="M10.4057 24.0424C10.4065 24.0792 10.3947 24.1151 10.3723 24.1442C10.3499 24.1734 10.3183 24.194 10.2826 24.2028C10.2545 24.0959 10.2995 24.0459 10.4057 24.0424Z" fill="#FFB800"/>
<path d="M10.462 23.965C10.4697 24.0115 10.4423 24.0319 10.4036 24.0438L10.462 23.965Z" fill="#FFB800"/>
<path d="M10.2826 24.1986L10.2123 24.2731C10.2107 24.2633 10.2114 24.2533 10.2144 24.2439C10.2173 24.2344 10.2223 24.2258 10.2291 24.2186C10.2359 24.2113 10.2443 24.2058 10.2536 24.2023C10.2628 24.1989 10.2728 24.1976 10.2826 24.1986Z" fill="#FFB800"/>
</svg>
